<?xml version="1.0" encoding="utf-8"?>
<!-- Generator: Adobe Illustrator 26.5.0, SVG Export Plug-In . SVG Version: 6.00 Build 0)  -->
<svg version="1.1" id="Layer_1" xmlns="http://www.w3.org/2000/svg" xmlns:xlink="http://www.w3.org/1999/xlink" x="0px" y="0px"
	 viewBox="0 0 353.9 353.9" style="enable-background:new 0 0 353.9 353.9;" xml:space="preserve">
<style type="text/css">
	.st0{fill:#006838;}
</style>
<g>
	<path d="M192.9,247.2c-0.1,0.1-0.2,0.1-0.4,0.2h-0.4C192.3,247.4,192.6,247.4,192.9,247.2z"/>
</g>
<g>
	<path class="st0" d="M202.1,294.7c0.2-0.2,0.3-0.4,0.5-0.7c0-0.1,0.1-0.1,0.1-0.2C202.5,294.2,202.3,294.5,202.1,294.7z"/>
	<path class="st0" d="M341.7,203.8h-41.8c-1.9,0-3.5,1.6-3.5,3.5v99.6c0,1.9-1.6,3.5-3.5,3.5h-71.4c-3.3,0-4.8-4.1-2.2-6.2
		c1.1-0.9,2.2-1.8,3.2-2.8c2.7-2.7,5-5.6,6.9-8.8c1.4-2.4,4-4,6.8-4h35c1.9,0,3.5-1.6,3.5-3.5v-99.6c0-1.9,1.6-3.5,3.5-3.5h8.3
		c3.2,0,4.7-3.9,2.4-6.1L179.4,74.1c-1.4-1.3-3.4-1.3-4.8,0L65.1,176c-2.3,2.2-0.8,6.1,2.4,6.1h17.2c1.9,0,3.5,1.6,3.5,3.5v99.6
		c0,1.9,1.6,3.5,3.5,3.5h67.2c6.1,0,10.9-1.4,14.3-4.1c3.4-2.7,5.1-7,5.1-12.9c0-3.4-0.9-6.2-2.8-8.3c-1.9-2.1-4.3-3.9-7.4-5.3
		c-3-1.4-6.5-2.6-10.4-3.7c-3.9-1.1-7.8-2.3-11.9-3.6c-4.1-1.3-8.1-2.9-11.9-4.8c-3.9-1.9-7.3-4.4-10.4-7.5c-3-3.1-5.5-7-7.4-11.6
		c-1.9-4.7-2.8-10.4-2.8-17.2c0-5.5,1.1-10.8,3.3-16c2.2-5.2,5.5-9.9,9.7-13.9c4.3-4.1,9.5-7.3,15.7-9.8c6.2-2.4,13.3-3.7,21.3-3.7
		c4.5,0,8.8,0.3,13.1,1.1c0.1,0,0.3,0,0.4,0.1c4.1,0.7,8,1.7,11.7,3c3.8,1.4,7.4,3,10.7,4.9c3.3,1.9,6.3,4.1,8.9,6.5l-7,13.1
		l-1.4,2.6c-1,1.6-2,2.8-3.2,3.6c-1.1,0.8-2.5,1.2-4.3,1.2c-1.5,0-3.2-0.5-5-1.4c-1.8-1-3.8-2-6-3.3c-1.3-0.7-2.6-1.3-4-1.9
		c-1.1-0.5-2.4-0.9-3.6-1.4c-2.9-1-6.1-1.4-9.8-1.4c-6.3,0-11.1,1.4-14.2,4.1c-3.1,2.7-4.7,6.4-4.7,11c0,2.9,0.9,5.4,2.8,7.3
		c1.9,1.9,4.3,3.6,7.4,5c3,1.4,6.5,2.7,10.4,3.9c3.9,1.2,7.9,2.5,12,3.9c4.1,1.4,8.1,3.1,12,5.1c3.9,1.9,7.4,4.4,10.4,7.4
		c3,3,5.5,6.6,7.4,11c1.9,4.3,2.8,9.5,2.8,15.6c0,6.8-1.2,13.1-3.5,19c-0.3,0.9-0.7,1.8-1.1,2.6c-0.9,1.8-1.8,3.5-2.8,5.2
		c0,0,0,0,0,0.1c-0.2,0.3-0.4,0.5-0.5,0.8c-0.3,0.4-0.5,0.8-0.8,1.2c-0.4,0.5-0.8,1.1-1.2,1.6c-0.2,0.3-0.4,0.5-0.6,0.8
		c-0.4,0.5-0.9,1-1.3,1.5c-0.5,0.6-1.1,1.2-1.7,1.7c-1.3,1.3-2.7,2.5-4.3,3.6c-0.4,0.3-0.7,0.5-1.1,0.8c-0.7,0.5-1.3,0.9-2,1.4
		c-0.5,0.3-1.1,0.7-1.6,1c-0.6,0.3-1.1,0.6-1.7,0.9c-0.5,0.3-1,0.5-1.6,0.8c-0.1,0-0.1,0.1-0.2,0.1c0,0,0,0-0.1,0
		c-0.5,0.2-1,0.3-1.5,0.3H69.9c-1.9,0-3.5-1.6-3.5-3.5v-99.6c0-1.9-1.6-3.5-3.5-3.5H12.2c-3.2,0-4.7-3.9-2.4-6.1L174.6,44.4
		c1.4-1.3,3.4-1.3,4.8,0l164.7,153.3C346.4,199.9,344.9,203.8,341.7,203.8z"/>
</g>
</svg>
